<?xml version="1.0" encoding="utf-8"?>
<svg viewBox="0 0 500 500" xmlns="http://www.w3.org/2000/svg" xmlns:bx="https://boxy-svg.com">
  <rect width="480" height="480" style="stroke-width: 20px; stroke: rgb(255, 255, 255); fill: rgb(102, 102, 102);" x="10" y="10"/>
  <path style="fill: rgb(102, 102, 102); stroke-width: 10.6803px; stroke-linecap: round; stroke: rgb(255, 255, 255); stroke-linejoin: round;" transform="matrix(1.9920320510864258, 0, 0, 1.9920320510864258, -638.4462985760911, -281.07574881726117)" d="M 429.546 171.22 L 462.454 171.22 L 462.35 194.125 A 74.296 74.296 0 0 1 485.687 203.792 L 501.809 187.522 L 525.078 210.791 L 508.808 226.913 A 74.296 74.296 0 0 1 518.475 250.25 L 541.38 250.146 L 541.38 283.054 L 518.475 282.95 A 74.296 74.296 0 0 1 508.808 306.287 L 525.078 322.409 L 501.809 345.678 L 485.687 329.408 A 74.296 74.296 0 0 1 462.35 339.075 L 462.454 361.98 L 429.546 361.98 L 429.651 339.075 A 74.296 74.296 0 0 1 406.313 329.408 L 390.191 345.678 L 366.922 322.409 L 383.192 306.287 A 74.296 74.296 0 0 1 373.525 282.95 L 350.62 283.054 L 350.62 250.146 L 373.525 250.25 A 74.296 74.296 0 0 1 383.192 226.913 L 366.922 210.791 L 390.191 187.522 L 406.313 203.792 A 74.296 74.296 0 0 1 429.651 194.125 Z M 446 233.468 A 33.132 33.132 0 0 0 446 299.732 A 33.132 33.132 0 0 0 446 233.468" bx:shape="cog 446 266.6 33.132 74.296 95.38 0.13 8 1@98c751c1"/>
</svg>